HIERARCHY
ROOT Hips
{
  OFFSET 0.000000 95.000000 0.000000
  CHANNELS 6 Xposition Yposition Zposition Zrotation Xrotation Yrotation
  JOINT Spine
  {
    OFFSET 0.000000 10.000000 0.000000
    CHANNELS 3 Zrotation Xrotation Yrotation
    JOINT Spine1
    {
      OFFSET 0.000000 12.000000 0.000000
      CHANNELS 3 Zrotation Xrotation Yrotation
      JOINT Spine2
      {
        OFFSET 0.000000 12.000000 0.000000
        CHANNELS 3 Zrotation Xrotation Yrotation
        JOINT Neck
        {
          OFFSET 0.000000 10.000000 0.000000
          CHANNELS 3 Zrotation Xrotation Yrotation
          JOINT Head
          {
            OFFSET 0.000000 8.000000 0.000000
            CHANNELS 3 Zrotation Xrotation Yrotation
            End Site
            {
              OFFSET 0.000000 10.000000 0.000000
            }
          }
        }
        JOINT LeftShoulder
        {
          OFFSET 6.000000 8.000000 0.000000
          CHANNELS 3 Zrotation Xrotation Yrotation
          JOINT LeftArm
          {
            OFFSET 12.000000 0.000000 0.000000
            CHANNELS 3 Zrotation Xrotation Yrotation
            JOINT LeftForeArm
            {
              OFFSET 24.000000 0.000000 0.000000
              CHANNELS 3 Zrotation Xrotation Yrotation
              JOINT LeftHand
              {
                OFFSET 22.000000 0.000000 0.000000
                CHANNELS 3 Zrotation Xrotation Yrotation
                JOINT LeftHandThumb1
                {
                  OFFSET 1.800000 -1.400000 0.500000
                  CHANNELS 3 Zrotation Xrotation Yrotation
                  JOINT LeftHandThumb2
                  {
                    OFFSET 2.400000 0.000000 0.000000
                    CHANNELS 3 Zrotation Xrotation Yrotation
                    JOINT LeftHandThumb3
                    {
                      OFFSET 1.900000 0.000000 0.000000
                      CHANNELS 3 Zrotation Xrotation Yrotation
                      End Site
                      {
                        OFFSET 1.600000 0.000000 0.000000
                      }
                    }
                  }
                }
                JOINT LeftHandIndex1
                {
                  OFFSET 6.600000 1.200000 0.300000
                  CHANNELS 3 Zrotation Xrotation Yrotation
                  JOINT LeftHandIndex2
                  {
                    OFFSET 2.000000 0.000000 0.000000
                    CHANNELS 3 Zrotation Xrotation Yrotation
                    JOINT LeftHandIndex3
                    {
                      OFFSET 1.200000 0.000000 0.000000
                      CHANNELS 3 Zrotation Xrotation Yrotation
                      End Site
                      {
                        OFFSET 1.000000 0.000000 0.000000
                      }
                    }
                  }
                }
                JOINT LeftHandMiddle1
                {
                  OFFSET 7.200000 0.000000 0.300000
                  CHANNELS 3 Zrotation Xrotation Yrotation
                  JOINT LeftHandMiddle2
                  {
                    OFFSET 3.000000 0.000000 0.000000
                    CHANNELS 3 Zrotation Xrotation Yrotation
                    JOINT LeftHandMiddle3
                    {
                      OFFSET 2.000000 0.000000 0.000000
                      CHANNELS 3 Zrotation Xrotation Yrotation
                      End Site
                      {
                        OFFSET 1.600000 0.000000 0.000000
                      }
                    }
                  }
                }
                JOINT LeftHandRing1
                {
                  OFFSET 7.100000 -1.000000 0.400000
                  CHANNELS 3 Zrotation Xrotation Yrotation
                  JOINT LeftHandRing2
                  {
                    OFFSET 2.600000 0.000000 0.000000
                    CHANNELS 3 Zrotation Xrotation Yrotation
                    JOINT LeftHandRing3
                    {
                      OFFSET 1.600000 0.000000 0.000000
                      CHANNELS 3 Zrotation Xrotation Yrotation
                      End Site
                      {
                        OFFSET 1.300000 0.000000 0.000000
                      }
                    }
                  }
                }
                JOINT LeftHandPinky1
                {
                  OFFSET 6.500000 -2.000000 0.500000
                  CHANNELS 3 Zrotation Xrotation Yrotation
                  JOINT LeftHandPinky2
                  {
                    OFFSET 1.900000 0.000000 0.000000
                    CHANNELS 3 Zrotation Xrotation Yrotation
                    JOINT LeftHandPinky3
                    {
                      OFFSET 1.400000 0.000000 0.000000
                      CHANNELS 3 Zrotation Xrotation Yrotation
                      End Site
                      {
                        OFFSET 1.300000 0.000000 0.000000
                      }
                    }
                  }
                }
              }
            }
          }
        }
        JOINT RightShoulder
        {
          OFFSET -6.000000 8.000000 0.000000
          CHANNELS 3 Zrotation Xrotation Yrotation
          JOINT RightArm
          {
            OFFSET -12.000000 0.000000 0.000000
            CHANNELS 3 Zrotation Xrotation Yrotation
            JOINT RightForeArm
            {
              OFFSET -24.000000 0.000000 0.000000
              CHANNELS 3 Zrotation Xrotation Yrotation
              JOINT RightHand
              {
                OFFSET -22.000000 0.000000 0.000000
                CHANNELS 3 Zrotation Xrotation Yrotation
                JOINT RightHandThumb1
                {
                  OFFSET -1.800000 -1.400000 0.500000
                  CHANNELS 3 Zrotation Xrotation Yrotation
                  JOINT RightHandThumb2
                  {
                    OFFSET -2.400000 0.000000 0.000000
                    CHANNELS 3 Zrotation Xrotation Yrotation
                    JOINT RightHandThumb3
                    {
                      OFFSET -1.900000 0.000000 0.000000
                      CHANNELS 3 Zrotation Xrotation Yrotation
                      End Site
                      {
                        OFFSET -1.600000 0.000000 0.000000
                      }
                    }
                  }
                }
                JOINT RightHandIndex1
                {
                  OFFSET -6.600000 1.200000 0.300000
                  CHANNELS 3 Zrotation Xrotation Yrotation
                  JOINT RightHandIndex2
                  {
                    OFFSET -2.000000 0.000000 0.000000
                    CHANNELS 3 Zrotation Xrotation Yrotation
                    JOINT RightHandIndex3
                    {
                      OFFSET -1.200000 0.000000 0.000000
                      CHANNELS 3 Zrotation Xrotation Yrotation
                      End Site
                      {
                        OFFSET -1.000000 0.000000 0.000000
                      }
                    }
                  }
                }
                JOINT RightHandMiddle1
                {
                  OFFSET -7.200000 0.000000 0.300000
                  CHANNELS 3 Zrotation Xrotation Yrotation
                  JOINT RightHandMiddle2
                  {
                    OFFSET -3.000000 0.000000 0.000000
                    CHANNELS 3 Zrotation Xrotation Yrotation
                    JOINT RightHandMiddle3
                    {
                      OFFSET -2.000000 0.000000 0.000000
                      CHANNELS 3 Zrotation Xrotation Yrotation
                      End Site
                      {
                        OFFSET -1.600000 0.000000 0.000000
                      }
                    }
                  }
                }
                JOINT RightHandRing1
                {
                  OFFSET -7.100000 -1.000000 0.400000
                  CHANNELS 3 Zrotation Xrotation Yrotation
                  JOINT RightHandRing2
                  {
                    OFFSET -2.600000 0.000000 0.000000
                    CHANNELS 3 Zrotation Xrotation Yrotation
                    JOINT RightHandRing3
                    {
                      OFFSET -1.600000 0.000000 0.000000
                      CHANNELS 3 Zrotation Xrotation Yrotation
                      End Site
                      {
                        OFFSET -1.300000 0.000000 0.000000
                      }
                    }
                  }
                }
                JOINT RightHandPinky1
                {
                  OFFSET -6.500000 -2.000000 0.500000
                  CHANNELS 3 Zrotation Xrotation Yrotation
                  JOINT RightHandPinky2
                  {
                    OFFSET -1.900000 0.000000 0.000000
                    CHANNELS 3 Zrotation Xrotation Yrotation
                    JOINT RightHandPinky3
                    {
                      OFFSET -1.400000 0.000000 0.000000
                      CHANNELS 3 Zrotation Xrotation Yrotation
                      End Site
                      {
                        OFFSET -1.300000 0.000000 0.000000
                      }
                    }
                  }
                }
              }
            }
          }
        }
      }
    }
  }
  JOINT LeftUpLeg
  {
    OFFSET 10.000000 -5.000000 0.000000
    CHANNELS 3 Zrotation Xrotation Yrotation
    JOINT LeftLeg
    {
      OFFSET 0.000000 -42.000000 0.000000
      CHANNELS 3 Zrotation Xrotation Yrotation
      JOINT LeftFoot
      {
        OFFSET 0.000000 -42.000000 4.000000
        CHANNELS 3 Zrotation Xrotation Yrotation
        End Site
        {
          OFFSET 0.000000 0.000000 12.000000
        }
      }
    }
  }
  JOINT RightUpLeg
  {
    OFFSET -10.000000 -5.000000 0.000000
    CHANNELS 3 Zrotation Xrotation Yrotation
    JOINT RightLeg
    {
      OFFSET 0.000000 -42.000000 0.000000
      CHANNELS 3 Zrotation Xrotation Yrotation
      JOINT RightFoot
      {
        OFFSET 0.000000 -42.000000 4.000000
        CHANNELS 3 Zrotation Xrotation Yrotation
        End Site
        {
          OFFSET 0.000000 0.000000 12.000000
        }
      }
    }
  }
}
MOTION
Frames: 5
Frame Time: 0.033333
0.0000 95.0000 0.0000 0.0000 0.0000 0.0000 0.0000 0.0000 0.0000 0.0000 0.0000 0.0000 0.0000 0.0000 0.0000 0.0000 0.0000 0.0000 0.0000 0.0000 0.0000 0.0000 0.0000 0.0000 -78.9265 0.5086 0.6177 -8.3033 -6.2126 8.8555 58.6574 -5.6217 178.4842 50.9279 -8.9363 10.2880 27.1696 0.0000 0.0000 4.9253 0.0000 0.0000 -26.7597 1.6833 9.1013 22.2782 0.0000 0.0000 43.8252 0.0000 0.0000 -37.1278 2.1687 1.6798 53.3969 0.0000 0.0000 90.0000 0.0000 0.0000 -30.7113 3.2963 3.3482 110.0000 0.0000 0.0000 58.3882 0.0000 0.0000 -23.6787 3.8011 3.2872 110.0000 0.0000 0.0000 27.2743 0.0000 0.0000 0.0000 0.0000 0.0000 81.7830 -5.5026 6.3527 0.8596 7.3213 8.5681 9.6437 18.1188 145.3019 -69.5007 -14.0064 -8.2065 4.7586 0.0000 0.0000 5.3908 0.0000 0.0000 5.1126 0.2905 0.4399 2.2335 0.0000 0.0000 2.1489 0.0000 0.0000 -2.0857 0.0123 5.4464 4.5195 0.0000 0.0000 2.0045 0.0000 0.0000 -10.1668 -0.8727 6.0065 6.3258 0.0000 0.0000 1.1306 0.0000 0.0000 -18.3494 -2.0917 5.3297 6.6788 0.0000 0.0000 2.9997 0.0000 0.0000 0.0000 0.0000 0.0000 0.0000 0.0000 0.0000 0.0000 0.0000 0.0000 0.0000 0.0000 0.0000 0.0000 0.0000 0.0000 0.0000 0.0000 0.0000
0.0000 95.0000 0.0000 0.0000 0.0000 0.0000 0.0000 0.0000 0.0000 0.0000 0.0000 0.0000 0.0000 0.0000 0.0000 0.0000 0.0000 0.0000 0.0000 0.0000 0.0000 0.0000 0.0000 0.0000 -78.7497 0.9012 1.0981 -8.4415 -5.6489 8.1856 58.6046 -5.4475 178.6678 50.9279 -8.9363 10.2880 27.1696 0.0000 0.0000 4.9253 0.0000 0.0000 -26.7597 1.6833 9.1013 22.2782 0.0000 0.0000 43.8252 0.0000 0.0000 -37.1278 2.1687 1.6798 53.3969 0.0000 0.0000 90.0000 0.0000 0.0000 -30.7113 3.2963 3.3482 110.0000 0.0000 0.0000 58.3882 0.0000 0.0000 -23.6787 3.8011 3.2872 110.0000 0.0000 0.0000 27.2743 0.0000 0.0000 0.0000 0.0000 0.0000 81.6689 -5.1471 5.9544 0.9188 7.8294 9.1892 9.3794 18.1841 145.0389 -69.5007 -14.0064 -8.2065 4.7586 0.0000 0.0000 5.3908 0.0000 0.0000 5.1126 0.2905 0.4399 2.2335 0.0000 0.0000 2.1489 0.0000 0.0000 -2.0857 0.0123 5.4464 4.5195 0.0000 0.0000 2.0045 0.0000 0.0000 -10.1668 -0.8727 6.0065 6.3258 0.0000 0.0000 1.1306 0.0000 0.0000 -18.3494 -2.0917 5.3297 6.6788 0.0000 0.0000 2.9997 0.0000 0.0000 0.0000 0.0000 0.0000 0.0000 0.0000 0.0000 0.0000 0.0000 0.0000 0.0000 0.0000 0.0000 0.0000 0.0000 0.0000 0.0000 0.0000 0.0000
0.0000 95.0000 0.0000 0.0000 0.0000 0.0000 0.0000 0.0000 0.0000 0.0000 0.0000 0.0000 0.0000 0.0000 0.0000 0.0000 0.0000 0.0000 0.0000 0.0000 0.0000 0.0000 0.0000 0.0000 -78.7031 0.8174 0.9968 -8.5231 -5.6120 8.1384 58.5644 -5.3146 178.8076 50.9279 -8.9363 10.2880 27.1696 0.0000 0.0000 4.9253 0.0000 0.0000 -26.7597 1.6833 9.1013 22.2782 0.0000 0.0000 43.8252 0.0000 0.0000 -37.1278 2.1687 1.6798 53.3969 0.0000 0.0000 90.0000 0.0000 0.0000 -30.7113 3.2963 3.3482 110.0000 0.0000 0.0000 58.3882 0.0000 0.0000 -23.6787 3.8011 3.2872 110.0000 0.0000 0.0000 27.2743 0.0000 0.0000 0.0000 0.0000 0.0000 81.4491 -4.5866 5.3268 1.5557 7.7335 9.2811 10.0454 17.8989 145.8298 -69.5007 -14.0064 -8.2065 4.7586 0.0000 0.0000 5.3908 0.0000 0.0000 5.1126 0.2905 0.4399 2.2335 0.0000 0.0000 2.1489 0.0000 0.0000 -2.0857 0.0123 5.4464 4.5195 0.0000 0.0000 2.0045 0.0000 0.0000 -10.1668 -0.8727 6.0065 6.3258 0.0000 0.0000 1.1306 0.0000 0.0000 -18.3494 -2.0917 5.3297 6.6788 0.0000 0.0000 2.9997 0.0000 0.0000 0.0000 0.0000 0.0000 0.0000 0.0000 0.0000 0.0000 0.0000 0.0000 0.0000 0.0000 0.0000 0.0000 0.0000 0.0000 0.0000 0.0000 0.0000
0.0000 95.0000 0.0000 0.0000 0.0000 0.0000 0.0000 0.0000 0.0000 0.0000 0.0000 0.0000 0.0000 0.0000 0.0000 0.0000 0.0000 0.0000 0.0000 0.0000 0.0000 0.0000 0.0000 0.0000 -78.6796 0.2962 0.3614 -9.1290 -5.5460 8.0423 57.9773 -4.6393 179.4995 50.9279 -8.9363 10.2880 27.1696 0.0000 0.0000 4.9253 0.0000 0.0000 -26.7597 1.6833 9.1013 22.2782 0.0000 0.0000 43.8252 0.0000 0.0000 -37.1278 2.1687 1.6798 53.3969 0.0000 0.0000 90.0000 0.0000 0.0000 -30.7113 3.2963 3.3482 110.0000 0.0000 0.0000 58.3882 0.0000 0.0000 -23.6787 3.8011 3.2872 110.0000 0.0000 0.0000 27.2743 0.0000 0.0000 0.0000 0.0000 0.0000 80.9862 -4.0570 4.7505 2.5571 7.8343 9.7263 10.6158 17.8974 146.2373 -69.5007 -14.0064 -8.2065 4.7586 0.0000 0.0000 5.3908 0.0000 0.0000 5.1126 0.2905 0.4399 2.2335 0.0000 0.0000 2.1489 0.0000 0.0000 -2.0857 0.0123 5.4464 4.5195 0.0000 0.0000 2.0045 0.0000 0.0000 -10.1668 -0.8727 6.0065 6.3258 0.0000 0.0000 1.1306 0.0000 0.0000 -18.3494 -2.0917 5.3297 6.6788 0.0000 0.0000 2.9997 0.0000 0.0000 0.0000 0.0000 0.0000 0.0000 0.0000 0.0000 0.0000 0.0000 0.0000 0.0000 0.0000 0.0000 0.0000 0.0000 0.0000 0.0000 0.0000 0.0000
0.0000 95.0000 0.0000 0.0000 0.0000 0.0000 0.0000 0.0000 0.0000 0.0000 0.0000 0.0000 0.0000 0.0000 0.0000 0.0000 0.0000 0.0000 0.0000 0.0000 0.0000 0.0000 0.0000 0.0000 -78.3884 0.6016 0.7377 -9.7083 -5.1225 7.6289 57.6351 -4.5540 179.5750 50.9279 -8.9363 10.2880 27.1696 0.0000 0.0000 4.9253 0.0000 0.0000 -26.7597 1.6833 9.1013 22.2782 0.0000 0.0000 43.8252 0.0000 0.0000 -37.1278 2.1687 1.6798 53.3969 0.0000 0.0000 90.0000 0.0000 0.0000 -30.7113 3.2963 3.3482 110.0000 0.0000 0.0000 58.3882 0.0000 0.0000 -23.6787 3.8011 3.2872 110.0000 0.0000 0.0000 27.2743 0.0000 0.0000 0.0000 0.0000 0.0000 79.6056 -3.1832 3.8198 5.3003 10.4528 14.0239 9.7535 20.2137 143.1216 -69.5007 -14.0064 -8.2065 4.7586 0.0000 0.0000 5.3908 0.0000 0.0000 5.1126 0.2905 0.4399 2.2335 0.0000 0.0000 2.1489 0.0000 0.0000 -2.0857 0.0123 5.4464 4.5195 0.0000 0.0000 2.0045 0.0000 0.0000 -10.1668 -0.8727 6.0065 6.3258 0.0000 0.0000 1.1306 0.0000 0.0000 -18.3494 -2.0917 5.3297 6.6788 0.0000 0.0000 2.9997 0.0000 0.0000 0.0000 0.0000 0.0000 0.0000 0.0000 0.0000 0.0000 0.0000 0.0000 0.0000 0.0000 0.0000 0.0000 0.0000 0.0000 0.0000 0.0000 0.0000
